#N canvas 74 163 1800 984 10;
#X obj 935 81 udpsend;
#X msg 843 18 disconnect;
#X obj 910 148 tgl 15 0 empty empty 1=connected 20 8 0 8 #00fc04 #f8fc00 #000000 0 1;
#X msg 843 -31 connect 127.0.0.1 8000;
#X obj 279 -193 loadbang;
#X floatatom -367 98 5 0 0 0 - - - 0;
#X msg -252 -132 set /neopixel1Beatriz;
#N canvas -630 501 1392 159 neo1Bea 0;
#X obj 150 394 outlet;
#X obj 151 365 packOSC;
#X msg 59 342 [;
#X msg 14 341 ];
#X obj 14 303 t b a b;
#X floatatom 145 97 5 0 0 0 - - - 0;
#X floatatom 13 91 5 0 0 0 - - - 0;
#X floatatom 55 93 5 0 0 0 - - - 0;
#X msg 4 134 /neopixel1Beatriz;
#X msg 3 252 /neopixel1Beatriz 100 100 100 170;
#X obj 3 161 bng 15 250 50 0 empty empty empty 17 7 0 10 #fcfcfc #000000 #000000;
#X obj 150 417;
#X obj 121 -11 bng 15 250 50 0 empty empty empty 17 7 0 10 #fcfcfc #000000 #000000;
#X obj 119 -37 inlet;
#X obj -1 -4 inlet;
#X obj 2 191 pack s 0 0 0 0;
#X msg 2 220 set \$1 \$2 \$3 \$4 \$5;
#X floatatom 203 107 5 0 0 0 - - - 0;
#X floatatom 325 208 5 0 0 0 - - - 0;
#X obj 318 175 cyclone/snapshot~ 1;
#X floatatom 322 262 5 0 0 0 - - - 0;
#X obj 323 232 * 1000;
#X obj 323 88 cyclone/line~ 1;
#X obj 321 289 int;
#X text 104 21 Color Rojo;
#X obj 409 117 bng 16 250 50 0 empty empty empty 0 -8 0 10 #fcfcfc #000000 #000000;
#X obj 463 250 gate;
#X obj 548 185 vradio 15 1 0 4 sdvs asfgasgf empty 0 -8 0 10 #dcdcdc #000000 #000000 0;
#X obj 641 240 nbx 3 15 -1e+37 1e+37 0 0 xfkvds asfmnv empty 0 -8 0 12 #dcdcdc #000000 #000000 0 256;
#X obj 548 255 nbx 2 15 -1e+37 1e+37 0 0 xfkvds asfmnv empty 0 -8 0 12 #dcdcdc #000000 #000000 0 256;
#X obj 641 303 nbx 3 13 -1e+37 1e+37 0 0 xfkvds asfmnv empty 0 -8 0 10 #dcdcdc #000000 #000000 0 256;
#X obj 594 303 nbx 3 13 -1e+37 1e+37 0 0 xfkvds asfmnv empty 0 -8 0 10 #dcdcdc #000000 #000000 0 256;
#X obj 548 303 nbx 3 13 -1e+37 1e+37 0 0 xfkvds asfmnv empty 0 -8 0 10 #dcdcdc #000000 #000000 0 256;
#X text 566 185 none;
#X text 566 200 1st;
#X text 566 215 2nd;
#X text 566 230 3rd;
#X text 502 215 outlet;
#X text 496 201 specify;
#X obj 641 323 bng 15 250 50 0 empty empty empty 17 7 0 10 #fcfcfc #000000 #000000;
#X obj 594 323 bng 15 250 50 0 empty empty empty 17 7 0 10 #fcfcfc #000000 #000000;
#X obj 548 323 bng 15 250 50 0 empty empty empty 17 7 0 10 #fcfcfc #000000 #000000;
#X obj 548 277 cyclone/gate 3 1;
#X text 641 218 float;
#X text 830 97 Valor Porcentaje base 10 25 1 50 2 75 3 100 4 125 5 150 6 175 7 200 8 225 9 255 10;
#X obj 884 279 table;
#X msg 67 34 100;
#X msg 422 49 0.004 \, 0.175 500;
#X connect 1 0 0 0;
#X connect 2 0 1 0;
#X connect 3 0 1 0;
#X connect 4 0 3 0;
#X connect 4 1 1 0;
#X connect 4 2 2 0;
#X connect 5 0 8 0;
#X connect 5 0 15 3;
#X connect 6 0 8 0;
#X connect 6 0 15 1;
#X connect 7 0 8 0;
#X connect 7 0 15 2;
#X connect 8 0 10 0;
#X connect 8 0 15 0;
#X connect 9 0 4 0;
#X connect 10 0 9 0;
#X connect 12 0 46 0;
#X connect 12 0 47 0;
#X connect 13 0 12 0;
#X connect 14 0 8 0;
#X connect 15 0 16 0;
#X connect 16 0 9 0;
#X connect 17 0 15 4;
#X connect 17 0 8 0;
#X connect 18 0 21 0;
#X connect 19 0 18 0;
#X connect 20 0 23 0;
#X connect 21 0 20 0;
#X connect 22 0 19 0;
#X connect 22 1 25 0;
#X connect 23 0 17 0;
#X connect 25 0 47 0;
#X connect 27 0 29 0;
#X connect 28 0 42 1;
#X connect 29 0 42 0;
#X connect 30 0 39 0;
#X connect 31 0 40 0;
#X connect 32 0 41 0;
#X connect 42 0 32 0;
#X connect 42 1 31 0;
#X connect 42 2 30 0;
#X connect 46 0 6 0;
#X connect 46 0 7 0;
#X connect 46 0 5 0;
#X connect 47 0 22 0;
#X restore -252 -83 pd neo1Bea;
#N canvas 78 636 1392 470 neo2Bea 0;
#X obj 150 394 outlet;
#X obj 151 365 packOSC;
#X msg 59 342 [;
#X msg 14 341 ];
#X obj 14 303 t b a b;
#X floatatom 145 97 5 0 0 0 - - - 0;
#X msg 4 134 /neopixel2Beatriz;
#X msg 3 252 /neopixel2Beatriz 0 0 255 89;
#X obj 3 161 bng 15 250 50 0 empty empty empty 17 7 0 10 #fcfcfc #000000 #000000;
#X obj 121 -11 bng 15 250 50 0 empty empty empty 17 7 0 10 #fcfcfc #000000 #000000;
#X obj 119 -37 inlet;
#X obj -1 -4 inlet;
#X obj 2 191 pack s 0 0 0 0;
#X msg 2 220 set \$1 \$2 \$3 \$4 \$5;
#X floatatom 203 107 5 0 0 0 - - - 0;
#X msg 80 32 255;
#X floatatom 325 208 5 0 0 0 - - - 0;
#X obj 318 175 cyclone/snapshot~ 1;
#X floatatom 322 262 5 0 0 0 - - - 0;
#X obj 323 232 * 1000;
#X obj 323 88 cyclone/line~ 1;
#X obj 321 289 int;
#X obj 409 117 bng 16 250 50 0 empty empty empty 0 -8 0 10 #fcfcfc #000000 #000000;
#X obj 463 250 gate;
#X obj 548 185 vradio 15 1 0 4 sdvs asfgasgf empty 0 -8 0 10 #dcdcdc #000000 #000000 0;
#X obj 641 240 nbx 3 15 -1e+37 1e+37 0 0 xfkvds asfmnv empty 0 -8 0 12 #dcdcdc #000000 #000000 0 256;
#X obj 548 255 nbx 2 15 -1e+37 1e+37 0 0 xfkvds asfmnv empty 0 -8 0 12 #dcdcdc #000000 #000000 0 256;
#X obj 641 303 nbx 3 13 -1e+37 1e+37 0 0 xfkvds asfmnv empty 0 -8 0 10 #dcdcdc #000000 #000000 0 256;
#X obj 594 303 nbx 3 13 -1e+37 1e+37 0 0 xfkvds asfmnv empty 0 -8 0 10 #dcdcdc #000000 #000000 0 256;
#X obj 548 303 nbx 3 13 -1e+37 1e+37 0 0 xfkvds asfmnv empty 0 -8 0 10 #dcdcdc #000000 #000000 0 256;
#X text 566 185 none;
#X text 566 200 1st;
#X text 566 215 2nd;
#X text 566 230 3rd;
#X text 502 215 outlet;
#X text 496 201 specify;
#X obj 641 323 bng 15 250 50 0 empty empty empty 17 7 0 10 #fcfcfc #000000 #000000;
#X obj 594 323 bng 15 250 50 0 empty empty empty 17 7 0 10 #fcfcfc #000000 #000000;
#X obj 548 323 bng 15 250 50 0 empty empty empty 17 7 0 10 #fcfcfc #000000 #000000;
#X obj 548 277 cyclone/gate 3 1;
#X text 641 218 float;
#X text 830 97 Valor Porcentaje base 10 25 1 50 2 75 3 100 4 125 5 150 6 175 7 200 8 225 9 255 10;
#X obj 884 279 table;
#X text 104 21 Color Blanco;
#X msg 424 49 0.01 \, 0.175 10000 0.01 10000;
#X connect 1 0 0 0;
#X connect 2 0 1 0;
#X connect 3 0 1 0;
#X connect 4 0 3 0;
#X connect 4 1 1 0;
#X connect 4 2 2 0;
#X connect 5 0 6 0;
#X connect 5 0 12 3;
#X connect 6 0 8 0;
#X connect 6 0 12 0;
#X connect 7 0 4 0;
#X connect 8 0 7 0;
#X connect 9 0 44 0;
#X connect 9 0 15 0;
#X connect 10 0 9 0;
#X connect 11 0 6 0;
#X connect 12 0 13 0;
#X connect 13 0 7 0;
#X connect 14 0 12 4;
#X connect 14 0 6 0;
#X connect 15 0 5 0;
#X connect 16 0 19 0;
#X connect 17 0 16 0;
#X connect 18 0 21 0;
#X connect 19 0 18 0;
#X connect 20 0 17 0;
#X connect 20 1 22 0;
#X connect 21 0 14 0;
#X connect 22 0 44 0;
#X connect 24 0 26 0;
#X connect 25 0 39 1;
#X connect 26 0 39 0;
#X connect 27 0 36 0;
#X connect 28 0 37 0;
#X connect 29 0 38 0;
#X connect 39 0 29 0;
#X connect 39 1 28 0;
#X connect 39 2 27 0;
#X connect 44 0 20 0;
#X restore -106 -85 pd neo2Bea;
#X msg -106 -134 set /neopixel2Beatriz;
#X msg 35 -135 set /neopixel3Beatriz;
#X msg 188 -134 set /neopixel4Beatriz;
#N canvas 189 566 1392 470 neo3Bea 1;
#X obj 150 394 outlet;
#X obj 151 365 packOSC;
#X msg 59 342 [;
#X msg 14 341 ];
#X obj 14 303 t b a b;
#X floatatom 145 97 5 0 0 0 - - - 0;
#X floatatom 13 91 5 0 0 0 - - - 0;
#X floatatom 54 94 5 0 0 0 - - - 0;
#X msg 4 134 /neopixel3Beatriz;
#X msg 3 252 /neopixel3Beatriz 255 0 0 146;
#X obj 3 161 bng 15 250 50 0 empty empty empty 17 7 0 10 #fcfcfc #000000 #000000;
#X obj 121 -11 bng 15 250 50 0 empty empty empty 17 7 0 10 #fcfcfc #000000 #000000;
#X obj 119 -37 inlet;
#X obj -1 -4 inlet;
#X obj 2 191 pack s 0 0 0 0;
#X msg 2 220 set \$1 \$2 \$3 \$4 \$5;
#X floatatom 203 107 5 0 0 0 - - - 0;
#X msg 80 32 255;
#X floatatom 325 208 5 0 0 0 - - - 0;
#X obj 318 175 cyclone/snapshot~ 1;
#X floatatom 322 262 5 0 0 0 - - - 0;
#X obj 323 232 * 1000;
#X obj 323 88 cyclone/line~ 1;
#X obj 321 289 int;
#X obj 409 117 bng 16 250 50 0 empty empty empty 0 -8 0 10 #fcfcfc #000000 #000000;
#X obj 463 250 gate;
#X obj 548 185 vradio 15 1 0 4 sdvs asfgasgf empty 0 -8 0 10 #dcdcdc #000000 #000000 0;
#X obj 641 240 nbx 3 15 -1e+37 1e+37 0 0 xfkvds asfmnv empty 0 -8 0 12 #dcdcdc #000000 #000000 0 256;
#X obj 548 255 nbx 2 15 -1e+37 1e+37 0 0 xfkvds asfmnv empty 0 -8 0 12 #dcdcdc #000000 #000000 0 256;
#X obj 641 303 nbx 3 13 -1e+37 1e+37 0 0 xfkvds asfmnv empty 0 -8 0 10 #dcdcdc #000000 #000000 0 256;
#X obj 594 303 nbx 3 13 -1e+37 1e+37 0 0 xfkvds asfmnv empty 0 -8 0 10 #dcdcdc #000000 #000000 0 256;
#X obj 548 303 nbx 3 13 -1e+37 1e+37 0 0 xfkvds asfmnv empty 0 -8 0 10 #dcdcdc #000000 #000000 0 256;
#X text 566 185 none;
#X text 566 200 1st;
#X text 566 215 2nd;
#X text 566 230 3rd;
#X text 502 215 outlet;
#X text 496 201 specify;
#X obj 641 323 bng 15 250 50 0 empty empty empty 17 7 0 10 #fcfcfc #000000 #000000;
#X obj 594 323 bng 15 250 50 0 empty empty empty 17 7 0 10 #fcfcfc #000000 #000000;
#X obj 548 323 bng 15 250 50 0 empty empty empty 17 7 0 10 #fcfcfc #000000 #000000;
#X obj 548 277 cyclone/gate 3 1;
#X text 641 218 float;
#X text 830 97 Valor Porcentaje base 10 25 1 50 2 75 3 100 4 125 5 150 6 175 7 200 8 225 9 255 10;
#X obj 884 279 table;
#X text 104 21 Color Blanco;
#X msg 126 68 0;
#X msg 423 49 0.2 \, 0.127 3000 0.01 3000 0.2 3000;
#X connect 1 0 0 0;
#X connect 2 0 1 0;
#X connect 3 0 1 0;
#X connect 4 0 3 0;
#X connect 4 1 1 0;
#X connect 4 2 2 0;
#X connect 5 0 8 0;
#X connect 5 0 14 3;
#X connect 6 0 8 0;
#X connect 6 0 14 1;
#X connect 7 0 8 0;
#X connect 7 0 14 2;
#X connect 8 0 10 0;
#X connect 8 0 14 0;
#X connect 9 0 4 0;
#X connect 10 0 9 0;
#X connect 11 0 17 0;
#X connect 11 0 47 0;
#X connect 12 0 11 0;
#X connect 13 0 8 0;
#X connect 14 0 15 0;
#X connect 15 0 9 0;
#X connect 16 0 14 4;
#X connect 16 0 8 0;
#X connect 17 0 6 0;
#X connect 18 0 21 0;
#X connect 19 0 18 0;
#X connect 20 0 23 0;
#X connect 21 0 20 0;
#X connect 22 0 19 0;
#X connect 22 1 24 0;
#X connect 23 0 16 0;
#X connect 24 0 47 0;
#X connect 26 0 28 0;
#X connect 27 0 41 1;
#X connect 28 0 41 0;
#X connect 29 0 38 0;
#X connect 30 0 39 0;
#X connect 31 0 40 0;
#X connect 41 0 31 0;
#X connect 41 1 30 0;
#X connect 41 2 29 0;
#X connect 46 0 7 0;
#X connect 46 0 5 0;
#X connect 47 0 22 0;
#X restore 35 -86 pd neo3Bea;
#N canvas 189 566 1392 470 neo4Bea 0;
#X obj 150 394 outlet;
#X obj 151 365 packOSC;
#X msg 59 342 [;
#X msg 14 341 ];
#X obj 14 303 t b a b;
#X floatatom 145 97 5 0 0 0 - - - 0;
#X floatatom 13 91 5 0 0 0 - - - 0;
#X floatatom 55 93 5 0 0 0 - - - 0;
#X msg 4 134 /neopixel4Beatriz;
#X msg 3 252 /neopixel4Beatriz 255 255 255 36;
#X obj 3 161 bng 15 250 50 0 empty empty empty 17 7 0 10 #fcfcfc #000000 #000000;
#X obj 121 -11 bng 15 250 50 0 empty empty empty 17 7 0 10 #fcfcfc #000000 #000000;
#X obj 119 -37 inlet;
#X obj -1 -4 inlet;
#X obj 2 191 pack s 0 0 0 0;
#X msg 2 220 set \$1 \$2 \$3 \$4 \$5;
#X floatatom 203 107 5 0 0 0 - - - 0;
#X msg 80 32 255;
#X floatatom 325 208 5 0 0 0 - - - 0;
#X obj 318 175 cyclone/snapshot~ 1;
#X floatatom 322 262 5 0 0 0 - - - 0;
#X obj 323 232 * 1000;
#X obj 323 88 cyclone/line~ 1;
#X obj 321 289 int;
#X obj 409 117 bng 16 250 50 0 empty empty empty 0 -8 0 10 #fcfcfc #000000 #000000;
#X obj 463 250 gate;
#X obj 548 185 vradio 15 1 0 4 sdvs asfgasgf empty 0 -8 0 10 #dcdcdc #000000 #000000 0;
#X obj 641 240 nbx 3 15 -1e+37 1e+37 0 0 xfkvds asfmnv empty 0 -8 0 12 #dcdcdc #000000 #000000 0 256;
#X obj 548 255 nbx 2 15 -1e+37 1e+37 0 0 xfkvds asfmnv empty 0 -8 0 12 #dcdcdc #000000 #000000 0 256;
#X obj 641 303 nbx 3 13 -1e+37 1e+37 0 0 xfkvds asfmnv empty 0 -8 0 10 #dcdcdc #000000 #000000 0 256;
#X obj 594 303 nbx 3 13 -1e+37 1e+37 0 0 xfkvds asfmnv empty 0 -8 0 10 #dcdcdc #000000 #000000 0 256;
#X obj 548 303 nbx 3 13 -1e+37 1e+37 0 0 xfkvds asfmnv empty 0 -8 0 10 #dcdcdc #000000 #000000 0 256;
#X text 566 185 none;
#X text 566 200 1st;
#X text 566 215 2nd;
#X text 566 230 3rd;
#X text 502 215 outlet;
#X text 496 201 specify;
#X obj 641 323 bng 15 250 50 0 empty empty empty 17 7 0 10 #fcfcfc #000000 #000000;
#X obj 594 323 bng 15 250 50 0 empty empty empty 17 7 0 10 #fcfcfc #000000 #000000;
#X obj 548 323 bng 15 250 50 0 empty empty empty 17 7 0 10 #fcfcfc #000000 #000000;
#X obj 548 277 cyclone/gate 3 1;
#X text 641 218 float;
#X text 830 97 Valor Porcentaje base 10 25 1 50 2 75 3 100 4 125 5 150 6 175 7 200 8 225 9 255 10;
#X obj 884 279 table;
#X text 104 21 Color Blanco;
#X msg 423 49 0 \, 0.075 10000 0 10000;
#X connect 1 0 0 0;
#X connect 2 0 1 0;
#X connect 3 0 1 0;
#X connect 4 0 3 0;
#X connect 4 1 1 0;
#X connect 4 2 2 0;
#X connect 5 0 8 0;
#X connect 5 0 14 3;
#X connect 6 0 8 0;
#X connect 6 0 14 1;
#X connect 7 0 8 0;
#X connect 7 0 14 2;
#X connect 8 0 10 0;
#X connect 8 0 14 0;
#X connect 9 0 4 0;
#X connect 10 0 9 0;
#X connect 11 0 17 0;
#X connect 11 0 46 0;
#X connect 12 0 11 0;
#X connect 13 0 8 0;
#X connect 14 0 15 0;
#X connect 15 0 9 0;
#X connect 16 0 14 4;
#X connect 16 0 8 0;
#X connect 17 0 6 0;
#X connect 17 0 7 0;
#X connect 17 0 5 0;
#X connect 18 0 21 0;
#X connect 19 0 18 0;
#X connect 20 0 23 0;
#X connect 21 0 20 0;
#X connect 22 0 19 0;
#X connect 22 1 24 0;
#X connect 23 0 16 0;
#X connect 24 0 46 0;
#X connect 26 0 28 0;
#X connect 27 0 41 1;
#X connect 28 0 41 0;
#X connect 29 0 38 0;
#X connect 30 0 39 0;
#X connect 31 0 40 0;
#X connect 41 0 31 0;
#X connect 41 1 30 0;
#X connect 41 2 29 0;
#X connect 46 0 22 0;
#X restore 176 -84 pd neo4Bea;
#X msg 340 -134 set /led1Beatriz;
#N canvas -924 571 1392 470 led1Bea 0;
#X obj 150 394 outlet;
#X obj 151 365 packOSC;
#X msg 59 342 [;
#X msg 14 341 ];
#X obj 14 303 t b a b;
#X msg 4 134 /led1Beatriz;
#X msg 3 252 /led1Beatriz 216;
#X obj 3 161 bng 15 250 50 0 empty empty empty 17 7 0 10 #fcfcfc #000000 #000000;
#X obj 150 417;
#X obj 121 -11 bng 15 250 50 0 empty empty empty 17 7 0 10 #fcfcfc #000000 #000000;
#X obj 119 -37 inlet;
#X obj -1 -4 inlet;
#X floatatom 203 107 5 0 0 0 - - - 0;
#X floatatom 325 208 5 0 0 0 - - - 0;
#X obj 318 175 cyclone/snapshot~ 1;
#X floatatom 322 262 5 0 0 0 - - - 0;
#X obj 323 232 * 1000;
#X obj 323 88 cyclone/line~ 1;
#X obj 321 289 int;
#X obj 409 117 bng 16 250 50 0 empty empty empty 0 -8 0 10 #fcfcfc #000000 #000000;
#X obj 463 250 gate;
#X obj 548 185 vradio 15 1 0 4 sdvs asfgasgf empty 0 -8 0 10 #dcdcdc #000000 #000000 0;
#X obj 641 240 nbx 3 15 -1e+37 1e+37 0 0 xfkvds asfmnv empty 0 -8 0 12 #dcdcdc #000000 #000000 0 256;
#X obj 548 255 nbx 2 15 -1e+37 1e+37 0 0 xfkvds asfmnv empty 0 -8 0 12 #dcdcdc #000000 #000000 0 256;
#X obj 641 303 nbx 3 13 -1e+37 1e+37 0 0 xfkvds asfmnv empty 0 -8 0 10 #dcdcdc #000000 #000000 0 256;
#X obj 594 303 nbx 3 13 -1e+37 1e+37 0 0 xfkvds asfmnv empty 0 -8 0 10 #dcdcdc #000000 #000000 0 256;
#X obj 548 303 nbx 3 13 -1e+37 1e+37 0 0 xfkvds asfmnv empty 0 -8 0 10 #dcdcdc #000000 #000000 0 256;
#X text 566 185 none;
#X text 566 200 1st;
#X text 566 215 2nd;
#X text 566 230 3rd;
#X text 502 215 outlet;
#X text 496 201 specify;
#X obj 641 323 bng 15 250 50 0 empty empty empty 17 7 0 10 #fcfcfc #000000 #000000;
#X obj 594 323 bng 15 250 50 0 empty empty empty 17 7 0 10 #fcfcfc #000000 #000000;
#X obj 548 323 bng 15 250 50 0 empty empty empty 17 7 0 10 #fcfcfc #000000 #000000;
#X obj 548 277 cyclone/gate 3 1;
#X text 641 218 float;
#X text 830 97 Valor Porcentaje base 10 25 1 50 2 75 3 100 4 125 5 150 6 175 7 200 8 225 9 255 10;
#X obj 2 191 pack s 0;
#X msg 2 220 set \$1 \$2;
#X msg 423 49 0 \, 0.225 5000 0 5000;
#X connect 1 0 0 0;
#X connect 2 0 1 0;
#X connect 3 0 1 0;
#X connect 4 0 3 0;
#X connect 4 1 1 0;
#X connect 4 2 2 0;
#X connect 5 0 7 0;
#X connect 5 0 39 0;
#X connect 6 0 4 0;
#X connect 7 0 6 0;
#X connect 9 0 41 0;
#X connect 10 0 9 0;
#X connect 11 0 5 0;
#X connect 12 0 5 0;
#X connect 12 0 39 1;
#X connect 13 0 16 0;
#X connect 14 0 13 0;
#X connect 15 0 18 0;
#X connect 16 0 15 0;
#X connect 17 0 14 0;
#X connect 17 1 19 0;
#X connect 18 0 12 0;
#X connect 19 0 41 0;
#X connect 21 0 23 0;
#X connect 22 0 36 1;
#X connect 23 0 36 0;
#X connect 24 0 33 0;
#X connect 25 0 34 0;
#X connect 26 0 35 0;
#X connect 36 0 26 0;
#X connect 36 1 25 0;
#X connect 36 2 24 0;
#X connect 39 0 40 0;
#X connect 40 0 6 0;
#X connect 41 0 17 0;
#X restore 352 -92 pd led1Bea;
#N canvas 189 566 1392 470 led2Bea 0;
#X obj 150 394 outlet;
#X obj 151 365 packOSC;
#X msg 59 342 [;
#X msg 14 341 ];
#X obj 14 303 t b a b;
#X msg 4 134 /led2Beatriz;
#X msg 3 252 /led2Beatriz 216;
#X obj 3 161 bng 15 250 50 0 empty empty empty 17 7 0 10 #fcfcfc #000000 #000000;
#X obj 150 417;
#X obj 121 -11 bng 15 250 50 0 empty empty empty 17 7 0 10 #fcfcfc #000000 #000000;
#X obj 119 -37 inlet;
#X obj -1 -4 inlet;
#X floatatom 203 107 5 0 0 0 - - - 0;
#X floatatom 325 208 5 0 0 0 - - - 0;
#X obj 318 175 cyclone/snapshot~ 1;
#X floatatom 322 262 5 0 0 0 - - - 0;
#X obj 323 232 * 1000;
#X obj 323 88 cyclone/line~ 1;
#X obj 321 289 int;
#X obj 409 117 bng 16 250 50 0 empty empty empty 0 -8 0 10 #fcfcfc #000000 #000000;
#X obj 463 250 gate;
#X obj 548 185 vradio 15 1 0 4 sdvs asfgasgf empty 0 -8 0 10 #dcdcdc #000000 #000000 0;
#X obj 641 240 nbx 3 15 -1e+37 1e+37 0 0 xfkvds asfmnv empty 0 -8 0 12 #dcdcdc #000000 #000000 0 256;
#X obj 548 255 nbx 2 15 -1e+37 1e+37 0 0 xfkvds asfmnv empty 0 -8 0 12 #dcdcdc #000000 #000000 0 256;
#X obj 641 303 nbx 3 13 -1e+37 1e+37 0 0 xfkvds asfmnv empty 0 -8 0 10 #dcdcdc #000000 #000000 0 256;
#X obj 594 303 nbx 3 13 -1e+37 1e+37 0 0 xfkvds asfmnv empty 0 -8 0 10 #dcdcdc #000000 #000000 0 256;
#X obj 548 303 nbx 3 13 -1e+37 1e+37 0 0 xfkvds asfmnv empty 0 -8 0 10 #dcdcdc #000000 #000000 0 256;
#X text 566 185 none;
#X text 566 200 1st;
#X text 566 215 2nd;
#X text 566 230 3rd;
#X text 502 215 outlet;
#X text 496 201 specify;
#X obj 641 323 bng 15 250 50 0 empty empty empty 17 7 0 10 #fcfcfc #000000 #000000;
#X obj 594 323 bng 15 250 50 0 empty empty empty 17 7 0 10 #fcfcfc #000000 #000000;
#X obj 548 323 bng 15 250 50 0 empty empty empty 17 7 0 10 #fcfcfc #000000 #000000;
#X obj 548 277 cyclone/gate 3 1;
#X text 641 218 float;
#X text 830 97 Valor Porcentaje base 10 25 1 50 2 75 3 100 4 125 5 150 6 175 7 200 8 225 9 255 10;
#X obj 2 191 pack s 0;
#X msg 2 220 set \$1 \$2;
#X msg 423 49 0 \, 0.225 5000 0 5000;
#X connect 1 0 0 0;
#X connect 2 0 1 0;
#X connect 3 0 1 0;
#X connect 4 0 3 0;
#X connect 4 1 1 0;
#X connect 4 2 2 0;
#X connect 5 0 7 0;
#X connect 5 0 39 0;
#X connect 6 0 4 0;
#X connect 7 0 6 0;
#X connect 9 0 41 0;
#X connect 10 0 9 0;
#X connect 11 0 5 0;
#X connect 12 0 5 0;
#X connect 12 0 39 1;
#X connect 13 0 16 0;
#X connect 14 0 13 0;
#X connect 15 0 18 0;
#X connect 16 0 15 0;
#X connect 17 0 14 0;
#X connect 17 1 19 0;
#X connect 18 0 12 0;
#X connect 19 0 41 0;
#X connect 21 0 23 0;
#X connect 22 0 36 1;
#X connect 23 0 36 0;
#X connect 24 0 33 0;
#X connect 25 0 34 0;
#X connect 26 0 35 0;
#X connect 36 0 26 0;
#X connect 36 1 25 0;
#X connect 36 2 24 0;
#X connect 39 0 40 0;
#X connect 40 0 6 0;
#X connect 41 0 17 0;
#X restore 468 -90 pd led2Bea;
#X msg 456 -132 set /led2Beatriz;
#X msg -243 13 set /neopixel1Reynalda;
#X msg -97 8 set /neopixel2Reynalda;
#X msg 44 10 set /neopixel3Reynalda;
#X msg 197 11 set /neopixel4Reynalda;
#X msg 321 3 set /led1Reynalda;
#X msg 441 3 set /led2Reynalda;
#X msg 560 7 set /led3Reynalda;
#X msg 680 7 set /led4Reynalda;
#N canvas 14 595 1392 470 neo1Rey 0;
#X obj 150 394 outlet;
#X obj 151 365 packOSC;
#X msg 59 342 [;
#X msg 14 341 ];
#X obj 14 303 t b a b;
#X floatatom 145 97 5 0 0 0 - - - 0;
#X floatatom 13 91 5 0 0 0 - - - 0;
#X floatatom 55 93 5 0 0 0 - - - 0;
#X msg 4 134 /neopixel1Reynalda;
#X msg 3 252 /neopixel1Reynalda 255 0 0 48;
#X obj 3 161 bng 15 250 50 0 empty empty empty 17 7 0 10 #fcfcfc #000000 #000000;
#X obj 150 417;
#X obj 121 -11 bng 15 250 50 0 empty empty empty 17 7 0 10 #fcfcfc #000000 #000000;
#X obj 119 -37 inlet;
#X obj -1 -4 inlet;
#X obj 2 191 pack s 0 0 0 0;
#X msg 2 220 set \$1 \$2 \$3 \$4 \$5;
#X floatatom 203 107 5 0 0 0 - - - 0;
#X msg 67 34 255;
#X floatatom 325 208 5 0 0 0 - - - 0;
#X obj 318 175 cyclone/snapshot~ 1;
#X floatatom 322 262 5 0 0 0 - - - 0;
#X obj 323 232 * 1000;
#X obj 323 88 cyclone/line~ 1;
#X obj 321 289 int;
#X text 104 21 Color Rojo;
#X obj 409 117 bng 16 250 50 0 empty empty empty 0 -8 0 10 #fcfcfc #000000 #000000;
#X obj 463 250 gate;
#X obj 548 185 vradio 15 1 0 4 sdvs asfgasgf empty 0 -8 0 10 #dcdcdc #000000 #000000 0;
#X obj 641 240 nbx 3 15 -1e+37 1e+37 0 0 xfkvds asfmnv empty 0 -8 0 12 #dcdcdc #000000 #000000 0 256;
#X obj 548 255 nbx 2 15 -1e+37 1e+37 0 0 xfkvds asfmnv empty 0 -8 0 12 #dcdcdc #000000 #000000 0 256;
#X obj 641 303 nbx 3 13 -1e+37 1e+37 0 0 xfkvds asfmnv empty 0 -8 0 10 #dcdcdc #000000 #000000 0 256;
#X obj 594 303 nbx 3 13 -1e+37 1e+37 0 0 xfkvds asfmnv empty 0 -8 0 10 #dcdcdc #000000 #000000 0 256;
#X obj 548 303 nbx 3 13 -1e+37 1e+37 0 0 xfkvds asfmnv empty 0 -8 0 10 #dcdcdc #000000 #000000 0 256;
#X text 566 185 none;
#X text 566 200 1st;
#X text 566 215 2nd;
#X text 566 230 3rd;
#X text 502 215 outlet;
#X text 496 201 specify;
#X obj 641 323 bng 15 250 50 0 empty empty empty 17 7 0 10 #fcfcfc #000000 #000000;
#X obj 594 323 bng 15 250 50 0 empty empty empty 17 7 0 10 #fcfcfc #000000 #000000;
#X obj 548 323 bng 15 250 50 0 empty empty empty 17 7 0 10 #fcfcfc #000000 #000000;
#X obj 548 277 cyclone/gate 3 1;
#X text 641 218 float;
#X text 830 97 Valor Porcentaje base 10 25 1 50 2 75 3 100 4 125 5 150 6 175 7 200 8 225 9 255 10;
#X obj 884 279 table;
#X msg 423 49 0.15 \, 0.05 5000 0.0175 5000 0.15;
#X connect 1 0 0 0;
#X connect 2 0 1 0;
#X connect 3 0 1 0;
#X connect 4 0 3 0;
#X connect 4 1 1 0;
#X connect 4 2 2 0;
#X connect 5 0 8 0;
#X connect 5 0 15 3;
#X connect 6 0 8 0;
#X connect 6 0 15 1;
#X connect 7 0 8 0;
#X connect 7 0 15 2;
#X connect 8 0 10 0;
#X connect 8 0 15 0;
#X connect 9 0 4 0;
#X connect 10 0 9 0;
#X connect 12 0 18 0;
#X connect 12 0 47 0;
#X connect 13 0 12 0;
#X connect 14 0 8 0;
#X connect 15 0 16 0;
#X connect 16 0 9 0;
#X connect 17 0 15 4;
#X connect 17 0 8 0;
#X connect 18 0 6 0;
#X connect 19 0 22 0;
#X connect 20 0 19 0;
#X connect 21 0 24 0;
#X connect 22 0 21 0;
#X connect 23 0 20 0;
#X connect 23 1 26 0;
#X connect 24 0 17 0;
#X connect 26 0 47 0;
#X connect 28 0 30 0;
#X connect 29 0 43 1;
#X connect 30 0 43 0;
#X connect 31 0 40 0;
#X connect 32 0 41 0;
#X connect 33 0 42 0;
#X connect 43 0 33 0;
#X connect 43 1 32 0;
#X connect 43 2 31 0;
#X connect 47 0 23 0;
#X restore -243 62 pd neo1Rey;
#N canvas 191 467 1392 470 neo2Rey 0;
#X obj 150 394 outlet;
#X obj 151 365 packOSC;
#X msg 59 342 [;
#X msg 14 341 ];
#X obj 14 303 t b a b;
#X floatatom 145 97 5 0 0 0 - - - 0;
#X floatatom 13 91 5 0 0 0 - - - 0;
#X floatatom 55 93 5 0 0 0 - - - 0;
#X msg 4 134 /neopixel2Reynalda;
#X msg 3 252 /neopixel2Reynalda 100 100 100 86;
#X obj 3 161 bng 15 250 50 0 empty empty empty 17 7 0 10 #fcfcfc #000000 #000000;
#X obj 121 -11 bng 15 250 50 0 empty empty empty 17 7 0 10 #fcfcfc #000000 #000000;
#X obj 119 -37 inlet;
#X obj -1 -4 inlet;
#X obj 2 191 pack s 0 0 0 0;
#X msg 2 220 set \$1 \$2 \$3 \$4 \$5;
#X floatatom 203 107 5 0 0 0 - - - 0;
#X floatatom 325 208 5 0 0 0 - - - 0;
#X obj 318 175 cyclone/snapshot~ 1;
#X floatatom 322 262 5 0 0 0 - - - 0;
#X obj 323 232 * 1000;
#X obj 323 88 cyclone/line~ 1;
#X obj 321 289 int;
#X obj 409 117 bng 16 250 50 0 empty empty empty 0 -8 0 10 #fcfcfc #000000 #000000;
#X obj 463 250 gate;
#X obj 548 185 vradio 15 1 0 4 sdvs asfgasgf empty 0 -8 0 10 #dcdcdc #000000 #000000 0;
#X obj 641 240 nbx 3 15 -1e+37 1e+37 0 0 xfkvds asfmnv empty 0 -8 0 12 #dcdcdc #000000 #000000 0 256;
#X obj 548 255 nbx 2 15 -1e+37 1e+37 0 0 xfkvds asfmnv empty 0 -8 0 12 #dcdcdc #000000 #000000 0 256;
#X obj 641 303 nbx 3 13 -1e+37 1e+37 0 0 xfkvds asfmnv empty 0 -8 0 10 #dcdcdc #000000 #000000 0 256;
#X obj 594 303 nbx 3 13 -1e+37 1e+37 0 0 xfkvds asfmnv empty 0 -8 0 10 #dcdcdc #000000 #000000 0 256;
#X obj 548 303 nbx 3 13 -1e+37 1e+37 0 0 xfkvds asfmnv empty 0 -8 0 10 #dcdcdc #000000 #000000 0 256;
#X text 566 185 none;
#X text 566 200 1st;
#X text 566 215 2nd;
#X text 566 230 3rd;
#X text 502 215 outlet;
#X text 496 201 specify;
#X obj 641 323 bng 15 250 50 0 empty empty empty 17 7 0 10 #fcfcfc #000000 #000000;
#X obj 594 323 bng 15 250 50 0 empty empty empty 17 7 0 10 #fcfcfc #000000 #000000;
#X obj 548 323 bng 15 250 50 0 empty empty empty 17 7 0 10 #fcfcfc #000000 #000000;
#X obj 548 277 cyclone/gate 3 1;
#X text 641 218 float;
#X text 830 97 Valor Porcentaje base 10 25 1 50 2 75 3 100 4 125 5 150 6 175 7 200 8 225 9 255 10;
#X obj 884 279 table;
#X text 104 21 Color Blanco;
#X msg 80 32 100;
#X msg 423 49 0.1 \, 0.02 7000 0.1 7000;
#X connect 1 0 0 0;
#X connect 2 0 1 0;
#X connect 3 0 1 0;
#X connect 4 0 3 0;
#X connect 4 1 1 0;
#X connect 4 2 2 0;
#X connect 5 0 8 0;
#X connect 5 0 14 3;
#X connect 6 0 8 0;
#X connect 6 0 14 1;
#X connect 7 0 8 0;
#X connect 7 0 14 2;
#X connect 8 0 10 0;
#X connect 8 0 14 0;
#X connect 9 0 4 0;
#X connect 10 0 9 0;
#X connect 11 0 45 0;
#X connect 11 0 46 0;
#X connect 12 0 11 0;
#X connect 13 0 8 0;
#X connect 14 0 15 0;
#X connect 15 0 9 0;
#X connect 16 0 14 4;
#X connect 16 0 8 0;
#X connect 17 0 20 0;
#X connect 18 0 17 0;
#X connect 19 0 22 0;
#X connect 20 0 19 0;
#X connect 21 0 18 0;
#X connect 21 1 23 0;
#X connect 22 0 16 0;
#X connect 23 0 46 0;
#X connect 25 0 27 0;
#X connect 26 0 40 1;
#X connect 27 0 40 0;
#X connect 28 0 37 0;
#X connect 29 0 38 0;
#X connect 30 0 39 0;
#X connect 40 0 30 0;
#X connect 40 1 29 0;
#X connect 40 2 28 0;
#X connect 45 0 6 0;
#X connect 45 0 7 0;
#X connect 45 0 5 0;
#X connect 46 0 21 0;
#X restore -97 60 pd neo2Rey;
#N canvas -612 427 1392 470 neo3Rey 0;
#X obj 150 394 outlet;
#X obj 151 365 packOSC;
#X msg 59 342 [;
#X msg 14 341 ];
#X obj 14 303 t b a b;
#X floatatom 145 97 5 0 0 0 - - - 0;
#X floatatom 13 91 5 0 0 0 - - - 0;
#X floatatom 55 93 5 0 0 0 - - - 0;
#X msg 4 134 /neopixel3Reynalda;
#X msg 3 252 /neopixel3Reynalda 37 167 255 48;
#X obj 3 161 bng 15 250 50 0 empty empty empty 17 7 0 10 #fcfcfc #000000 #000000;
#X obj 121 -11 bng 15 250 50 0 empty empty empty 17 7 0 10 #fcfcfc #000000 #000000;
#X obj 119 -37 inlet;
#X obj -1 -4 inlet;
#X obj 2 191 pack s 0 0 0 0;
#X msg 2 220 set \$1 \$2 \$3 \$4 \$5;
#X floatatom 203 107 5 0 0 0 - - - 0;
#X msg 80 32 255;
#X floatatom 325 208 5 0 0 0 - - - 0;
#X obj 318 175 cyclone/snapshot~ 1;
#X floatatom 322 262 5 0 0 0 - - - 0;
#X obj 323 232 * 1000;
#X obj 323 88 cyclone/line~ 1;
#X obj 321 289 int;
#X obj 409 117 bng 16 250 50 0 empty empty empty 0 -8 0 10 #fcfcfc #000000 #000000;
#X obj 463 250 gate;
#X obj 548 185 vradio 15 1 0 4 sdvs asfgasgf empty 0 -8 0 10 #dcdcdc #000000 #000000 0;
#X obj 641 240 nbx 3 15 -1e+37 1e+37 0 0 xfkvds asfmnv empty 0 -8 0 12 #dcdcdc #000000 #000000 0 256;
#X obj 548 255 nbx 2 15 -1e+37 1e+37 0 0 xfkvds asfmnv empty 0 -8 0 12 #dcdcdc #000000 #000000 0 256;
#X obj 641 303 nbx 3 13 -1e+37 1e+37 0 0 xfkvds asfmnv empty 0 -8 0 10 #dcdcdc #000000 #000000 0 256;
#X obj 594 303 nbx 3 13 -1e+37 1e+37 0 0 xfkvds asfmnv empty 0 -8 0 10 #dcdcdc #000000 #000000 0 256;
#X obj 548 303 nbx 3 13 -1e+37 1e+37 0 0 xfkvds asfmnv empty 0 -8 0 10 #dcdcdc #000000 #000000 0 256;
#X text 566 185 none;
#X text 566 200 1st;
#X text 566 215 2nd;
#X text 566 230 3rd;
#X text 502 215 outlet;
#X text 496 201 specify;
#X obj 641 323 bng 15 250 50 0 empty empty empty 17 7 0 10 #fcfcfc #000000 #000000;
#X obj 594 323 bng 15 250 50 0 empty empty empty 17 7 0 10 #fcfcfc #000000 #000000;
#X obj 548 323 bng 15 250 50 0 empty empty empty 17 7 0 10 #fcfcfc #000000 #000000;
#X obj 548 277 cyclone/gate 3 1;
#X text 641 218 float;
#X text 830 97 Valor Porcentaje base 10 25 1 50 2 75 3 100 4 125 5 150 6 175 7 200 8 225 9 255 10;
#X obj 884 279 table;
#X text 104 21 Color Blanco;
#X msg 19 45 37;
#X msg 48 26 167;
#X msg 423 49 0.15 \, 0.05 5000 0.0175 5000 0.15;
#X connect 1 0 0 0;
#X connect 2 0 1 0;
#X connect 3 0 1 0;
#X connect 4 0 3 0;
#X connect 4 1 1 0;
#X connect 4 2 2 0;
#X connect 5 0 8 0;
#X connect 5 0 14 3;
#X connect 6 0 8 0;
#X connect 6 0 14 1;
#X connect 7 0 8 0;
#X connect 7 0 14 2;
#X connect 8 0 10 0;
#X connect 8 0 14 0;
#X connect 9 0 4 0;
#X connect 10 0 9 0;
#X connect 11 0 17 0;
#X connect 11 0 48 0;
#X connect 11 0 47 0;
#X connect 11 0 46 0;
#X connect 12 0 11 0;
#X connect 13 0 8 0;
#X connect 14 0 15 0;
#X connect 15 0 9 0;
#X connect 16 0 14 4;
#X connect 16 0 8 0;
#X connect 17 0 6 0;
#X connect 17 0 7 0;
#X connect 17 0 5 0;
#X connect 18 0 21 0;
#X connect 19 0 18 0;
#X connect 20 0 23 0;
#X connect 21 0 20 0;
#X connect 22 0 19 0;
#X connect 22 1 24 0;
#X connect 23 0 16 0;
#X connect 24 0 48 0;
#X connect 26 0 28 0;
#X connect 27 0 41 1;
#X connect 28 0 41 0;
#X connect 29 0 38 0;
#X connect 30 0 39 0;
#X connect 31 0 40 0;
#X connect 41 0 31 0;
#X connect 41 1 30 0;
#X connect 41 2 29 0;
#X connect 46 0 6 0;
#X connect 47 0 7 0;
#X connect 48 0 22 0;
#X restore 44 59 pd neo3Rey;
#N canvas 69 416 1392 470 neo4Rey 1;
#X obj 150 394 outlet;
#X obj 151 365 packOSC;
#X msg 59 342 [;
#X msg 14 341 ];
#X obj 14 303 t b a b;
#X floatatom 96 93 5 0 0 0 - - - 0;
#X floatatom 13 91 5 0 0 0 - - - 0;
#X floatatom 55 93 5 0 0 0 - - - 0;
#X msg 4 134 /neopixel4Reynalda;
#X msg 3 252 /neopixel4Reynalda 100 12 8 255;
#X obj 3 161 bng 15 250 50 0 empty empty empty 17 7 0 10 #fcfcfc #000000 #000000;
#X obj 180 -17 bng 15 250 50 0 empty empty empty 17 7 0 10 #fcfcfc #000000 #000000;
#X obj 119 -37 inlet;
#X obj -1 -4 inlet;
#X obj 2 191 pack s 0 0 0 0;
#X msg 2 220 set \$1 \$2 \$3 \$4 \$5;
#X floatatom 143 96 5 0 0 0 - - - 0;
#X obj 463 250 gate;
#X obj 548 185 vradio 15 1 0 4 sdvs asfgasgf empty 0 -8 0 10 #dcdcdc #000000 #000000 0;
#X obj 641 240 nbx 3 15 -1e+37 1e+37 0 0 xfkvds asfmnv empty 0 -8 0 12 #dcdcdc #000000 #000000 0 256;
#X obj 548 255 nbx 2 15 -1e+37 1e+37 0 0 xfkvds asfmnv empty 0 -8 0 12 #dcdcdc #000000 #000000 0 256;
#X obj 641 303 nbx 3 13 -1e+37 1e+37 0 0 xfkvds asfmnv empty 0 -8 0 10 #dcdcdc #000000 #000000 0 256;
#X obj 594 303 nbx 3 13 -1e+37 1e+37 0 0 xfkvds asfmnv empty 0 -8 0 10 #dcdcdc #000000 #000000 0 256;
#X obj 548 303 nbx 3 13 -1e+37 1e+37 0 0 xfkvds asfmnv empty 0 -8 0 10 #dcdcdc #000000 #000000 0 256;
#X text 566 185 none;
#X text 566 200 1st;
#X text 566 215 2nd;
#X text 566 230 3rd;
#X text 502 215 outlet;
#X text 496 201 specify;
#X obj 641 323 bng 15 250 50 0 empty empty empty 17 7 0 10 #fcfcfc #000000 #000000;
#X obj 594 323 bng 15 250 50 0 empty empty empty 17 7 0 10 #fcfcfc #000000 #000000;
#X obj 548 323 bng 15 250 50 0 empty empty empty 17 7 0 10 #fcfcfc #000000 #000000;
#X obj 548 277 cyclone/gate 3 1;
#X text 641 218 float;
#X text 830 97 Valor Porcentaje base 10 25 1 50 2 75 3 100 4 125 5 150 6 175 7 200 8 225 9 255 10;
#X obj 884 279 table;
#X text 297 15 Color Blanco;
#X msg 17 27 100;
#X msg 59 27 12;
#X msg 102 28 8;
#X msg 147 32 255;
#X obj 257 -27 delay 10;
#X connect 1 0 0 0;
#X connect 2 0 1 0;
#X connect 3 0 1 0;
#X connect 4 0 3 0;
#X connect 4 1 1 0;
#X connect 4 2 2 0;
#X connect 5 0 8 0;
#X connect 5 0 14 3;
#X connect 6 0 8 0;
#X connect 6 0 14 1;
#X connect 7 0 8 0;
#X connect 7 0 14 2;
#X connect 8 0 10 0;
#X connect 8 0 14 0;
#X connect 9 0 4 0;
#X connect 10 0 9 0;
#X connect 11 0 38 0;
#X connect 11 0 40 0;
#X connect 11 0 41 0;
#X connect 11 0 5 0;
#X connect 11 0 16 0;
#X connect 11 0 39 0;
#X connect 12 0 11 0;
#X connect 12 0 42 0;
#X connect 13 0 8 0;
#X connect 14 0 15 0;
#X connect 15 0 9 0;
#X connect 16 0 14 4;
#X connect 16 0 8 0;
#X connect 18 0 20 0;
#X connect 19 0 33 1;
#X connect 20 0 33 0;
#X connect 21 0 30 0;
#X connect 22 0 31 0;
#X connect 23 0 32 0;
#X connect 33 0 23 0;
#X connect 33 1 22 0;
#X connect 33 2 21 0;
#X connect 38 0 6 0;
#X connect 39 0 7 0;
#X connect 40 0 5 0;
#X connect 41 0 16 0;
#X connect 42 0 11 0;
#X connect 42 0 9 0;
#X restore 185 61 pd neo4Rey;
#N canvas 189 566 1392 470 led1Rey 0;
#X obj 150 394 outlet;
#X obj 151 365 packOSC;
#X msg 59 342 [;
#X msg 14 341 ];
#X obj 14 303 t b a b;
#X msg 4 134 /led1Reynalda;
#X msg 3 252 /led1Reynalda 216;
#X obj 3 161 bng 15 250 50 0 empty empty empty 17 7 0 10 #fcfcfc #000000 #000000;
#X obj 150 417;
#X obj 121 -11 bng 15 250 50 0 empty empty empty 17 7 0 10 #fcfcfc #000000 #000000;
#X obj 119 -37 inlet;
#X obj -1 -4 inlet;
#X floatatom 203 107 5 0 0 0 - - - 0;
#X floatatom 325 208 5 0 0 0 - - - 0;
#X obj 318 175 cyclone/snapshot~ 1;
#X floatatom 322 262 5 0 0 0 - - - 0;
#X obj 323 232 * 1000;
#X obj 323 88 cyclone/line~ 1;
#X obj 321 289 int;
#X obj 409 117 bng 16 250 50 0 empty empty empty 0 -8 0 10 #fcfcfc #000000 #000000;
#X obj 463 250 gate;
#X obj 548 185 vradio 15 1 0 4 sdvs asfgasgf empty 0 -8 0 10 #dcdcdc #000000 #000000 0;
#X obj 641 240 nbx 3 15 -1e+37 1e+37 0 0 xfkvds asfmnv empty 0 -8 0 12 #dcdcdc #000000 #000000 0 256;
#X obj 548 255 nbx 2 15 -1e+37 1e+37 0 0 xfkvds asfmnv empty 0 -8 0 12 #dcdcdc #000000 #000000 0 256;
#X obj 641 303 nbx 3 13 -1e+37 1e+37 0 0 xfkvds asfmnv empty 0 -8 0 10 #dcdcdc #000000 #000000 0 256;
#X obj 594 303 nbx 3 13 -1e+37 1e+37 0 0 xfkvds asfmnv empty 0 -8 0 10 #dcdcdc #000000 #000000 0 256;
#X obj 548 303 nbx 3 13 -1e+37 1e+37 0 0 xfkvds asfmnv empty 0 -8 0 10 #dcdcdc #000000 #000000 0 256;
#X text 566 185 none;
#X text 566 200 1st;
#X text 566 215 2nd;
#X text 566 230 3rd;
#X text 502 215 outlet;
#X text 496 201 specify;
#X obj 641 323 bng 15 250 50 0 empty empty empty 17 7 0 10 #fcfcfc #000000 #000000;
#X obj 594 323 bng 15 250 50 0 empty empty empty 17 7 0 10 #fcfcfc #000000 #000000;
#X obj 548 323 bng 15 250 50 0 empty empty empty 17 7 0 10 #fcfcfc #000000 #000000;
#X obj 548 277 cyclone/gate 3 1;
#X text 641 218 float;
#X text 830 97 Valor Porcentaje base 10 25 1 50 2 75 3 100 4 125 5 150 6 175 7 200 8 225 9 255 10;
#X obj 2 191 pack s 0;
#X msg 2 220 set \$1 \$2;
#X msg 423 49 0 \, 0.225 5000 0 5000;
#X connect 1 0 0 0;
#X connect 2 0 1 0;
#X connect 3 0 1 0;
#X connect 4 0 3 0;
#X connect 4 1 1 0;
#X connect 4 2 2 0;
#X connect 5 0 7 0;
#X connect 5 0 39 0;
#X connect 6 0 4 0;
#X connect 7 0 6 0;
#X connect 9 0 41 0;
#X connect 10 0 9 0;
#X connect 11 0 5 0;
#X connect 12 0 5 0;
#X connect 12 0 39 1;
#X connect 13 0 16 0;
#X connect 14 0 13 0;
#X connect 15 0 18 0;
#X connect 16 0 15 0;
#X connect 17 0 14 0;
#X connect 17 1 19 0;
#X connect 18 0 12 0;
#X connect 19 0 41 0;
#X connect 21 0 23 0;
#X connect 22 0 36 1;
#X connect 23 0 36 0;
#X connect 24 0 33 0;
#X connect 25 0 34 0;
#X connect 26 0 35 0;
#X connect 36 0 26 0;
#X connect 36 1 25 0;
#X connect 36 2 24 0;
#X connect 39 0 40 0;
#X connect 40 0 6 0;
#X connect 41 0 17 0;
#X restore 333 45 pd led1Rey;
#N canvas 189 566 1392 470 led2Rey 0;
#X obj 150 394 outlet;
#X obj 151 365 packOSC;
#X msg 59 342 [;
#X msg 14 341 ];
#X obj 14 303 t b a b;
#X msg 4 134 /led2Reynalda;
#X msg 3 252 /led2Reynalda 216;
#X obj 3 161 bng 15 250 50 0 empty empty empty 17 7 0 10 #fcfcfc #000000 #000000;
#X obj 150 417;
#X obj 121 -11 bng 15 250 50 0 empty empty empty 17 7 0 10 #fcfcfc #000000 #000000;
#X obj 119 -37 inlet;
#X obj -1 -4 inlet;
#X floatatom 203 107 5 0 0 0 - - - 0;
#X floatatom 325 208 5 0 0 0 - - - 0;
#X obj 318 175 cyclone/snapshot~ 1;
#X floatatom 322 262 5 0 0 0 - - - 0;
#X obj 323 232 * 1000;
#X obj 323 88 cyclone/line~ 1;
#X obj 321 289 int;
#X obj 409 117 bng 16 250 50 0 empty empty empty 0 -8 0 10 #fcfcfc #000000 #000000;
#X obj 463 250 gate;
#X obj 548 185 vradio 15 1 0 4 sdvs asfgasgf empty 0 -8 0 10 #dcdcdc #000000 #000000 0;
#X obj 641 240 nbx 3 15 -1e+37 1e+37 0 0 xfkvds asfmnv empty 0 -8 0 12 #dcdcdc #000000 #000000 0 256;
#X obj 548 255 nbx 2 15 -1e+37 1e+37 0 0 xfkvds asfmnv empty 0 -8 0 12 #dcdcdc #000000 #000000 0 256;
#X obj 641 303 nbx 3 13 -1e+37 1e+37 0 0 xfkvds asfmnv empty 0 -8 0 10 #dcdcdc #000000 #000000 0 256;
#X obj 594 303 nbx 3 13 -1e+37 1e+37 0 0 xfkvds asfmnv empty 0 -8 0 10 #dcdcdc #000000 #000000 0 256;
#X obj 548 303 nbx 3 13 -1e+37 1e+37 0 0 xfkvds asfmnv empty 0 -8 0 10 #dcdcdc #000000 #000000 0 256;
#X text 566 185 none;
#X text 566 200 1st;
#X text 566 215 2nd;
#X text 566 230 3rd;
#X text 502 215 outlet;
#X text 496 201 specify;
#X obj 641 323 bng 15 250 50 0 empty empty empty 17 7 0 10 #fcfcfc #000000 #000000;
#X obj 594 323 bng 15 250 50 0 empty empty empty 17 7 0 10 #fcfcfc #000000 #000000;
#X obj 548 323 bng 15 250 50 0 empty empty empty 17 7 0 10 #fcfcfc #000000 #000000;
#X obj 548 277 cyclone/gate 3 1;
#X text 641 218 float;
#X text 830 97 Valor Porcentaje base 10 25 1 50 2 75 3 100 4 125 5 150 6 175 7 200 8 225 9 255 10;
#X obj 2 191 pack s 0;
#X msg 2 220 set \$1 \$2;
#X msg 423 49 0 \, 0.225 5000 0 5000;
#X connect 1 0 0 0;
#X connect 2 0 1 0;
#X connect 3 0 1 0;
#X connect 4 0 3 0;
#X connect 4 1 1 0;
#X connect 4 2 2 0;
#X connect 5 0 7 0;
#X connect 5 0 39 0;
#X connect 6 0 4 0;
#X connect 7 0 6 0;
#X connect 9 0 41 0;
#X connect 10 0 9 0;
#X connect 11 0 5 0;
#X connect 12 0 5 0;
#X connect 12 0 39 1;
#X connect 13 0 16 0;
#X connect 14 0 13 0;
#X connect 15 0 18 0;
#X connect 16 0 15 0;
#X connect 17 0 14 0;
#X connect 17 1 19 0;
#X connect 18 0 12 0;
#X connect 19 0 41 0;
#X connect 21 0 23 0;
#X connect 22 0 36 1;
#X connect 23 0 36 0;
#X connect 24 0 33 0;
#X connect 25 0 34 0;
#X connect 26 0 35 0;
#X connect 36 0 26 0;
#X connect 36 1 25 0;
#X connect 36 2 24 0;
#X connect 39 0 40 0;
#X connect 40 0 6 0;
#X connect 41 0 17 0;
#X restore 443 48 pd led2Rey;
#N canvas 189 566 1392 470 led3Rey 0;
#X obj 150 394 outlet;
#X obj 151 365 packOSC;
#X msg 59 342 [;
#X msg 14 341 ];
#X obj 14 303 t b a b;
#X msg 4 134 /led3Reynalda;
#X msg 3 252 /led3Reynalda 216;
#X obj 3 161 bng 15 250 50 0 empty empty empty 17 7 0 10 #fcfcfc #000000 #000000;
#X obj 150 417;
#X obj 121 -11 bng 15 250 50 0 empty empty empty 17 7 0 10 #fcfcfc #000000 #000000;
#X obj 119 -37 inlet;
#X obj -1 -4 inlet;
#X floatatom 203 107 5 0 0 0 - - - 0;
#X floatatom 325 208 5 0 0 0 - - - 0;
#X obj 318 175 cyclone/snapshot~ 1;
#X floatatom 322 262 5 0 0 0 - - - 0;
#X obj 323 232 * 1000;
#X obj 323 88 cyclone/line~ 1;
#X obj 321 289 int;
#X obj 409 117 bng 16 250 50 0 empty empty empty 0 -8 0 10 #fcfcfc #000000 #000000;
#X obj 463 250 gate;
#X obj 548 185 vradio 15 1 0 4 sdvs asfgasgf empty 0 -8 0 10 #dcdcdc #000000 #000000 0;
#X obj 641 240 nbx 3 15 -1e+37 1e+37 0 0 xfkvds asfmnv empty 0 -8 0 12 #dcdcdc #000000 #000000 0 256;
#X obj 548 255 nbx 2 15 -1e+37 1e+37 0 0 xfkvds asfmnv empty 0 -8 0 12 #dcdcdc #000000 #000000 0 256;
#X obj 641 303 nbx 3 13 -1e+37 1e+37 0 0 xfkvds asfmnv empty 0 -8 0 10 #dcdcdc #000000 #000000 0 256;
#X obj 594 303 nbx 3 13 -1e+37 1e+37 0 0 xfkvds asfmnv empty 0 -8 0 10 #dcdcdc #000000 #000000 0 256;
#X obj 548 303 nbx 3 13 -1e+37 1e+37 0 0 xfkvds asfmnv empty 0 -8 0 10 #dcdcdc #000000 #000000 0 256;
#X text 566 185 none;
#X text 566 200 1st;
#X text 566 215 2nd;
#X text 566 230 3rd;
#X text 502 215 outlet;
#X text 496 201 specify;
#X obj 641 323 bng 15 250 50 0 empty empty empty 17 7 0 10 #fcfcfc #000000 #000000;
#X obj 594 323 bng 15 250 50 0 empty empty empty 17 7 0 10 #fcfcfc #000000 #000000;
#X obj 548 323 bng 15 250 50 0 empty empty empty 17 7 0 10 #fcfcfc #000000 #000000;
#X obj 548 277 cyclone/gate 3 1;
#X text 641 218 float;
#X text 830 97 Valor Porcentaje base 10 25 1 50 2 75 3 100 4 125 5 150 6 175 7 200 8 225 9 255 10;
#X obj 2 191 pack s 0;
#X msg 2 220 set \$1 \$2;
#X msg 423 49 0 \, 0.225 5000 0 5000;
#X connect 1 0 0 0;
#X connect 2 0 1 0;
#X connect 3 0 1 0;
#X connect 4 0 3 0;
#X connect 4 1 1 0;
#X connect 4 2 2 0;
#X connect 5 0 7 0;
#X connect 5 0 39 0;
#X connect 6 0 4 0;
#X connect 7 0 6 0;
#X connect 9 0 41 0;
#X connect 10 0 9 0;
#X connect 11 0 5 0;
#X connect 12 0 5 0;
#X connect 12 0 39 1;
#X connect 13 0 16 0;
#X connect 14 0 13 0;
#X connect 15 0 18 0;
#X connect 16 0 15 0;
#X connect 17 0 14 0;
#X connect 17 1 19 0;
#X connect 18 0 12 0;
#X connect 19 0 41 0;
#X connect 21 0 23 0;
#X connect 22 0 36 1;
#X connect 23 0 36 0;
#X connect 24 0 33 0;
#X connect 25 0 34 0;
#X connect 26 0 35 0;
#X connect 36 0 26 0;
#X connect 36 1 25 0;
#X connect 36 2 24 0;
#X connect 39 0 40 0;
#X connect 40 0 6 0;
#X connect 41 0 17 0;
#X restore 572 49 pd led3Rey;
#N canvas 189 566 1392 470 led4rey 0;
#X obj 150 394 outlet;
#X obj 151 365 packOSC;
#X msg 59 342 [;
#X msg 14 341 ];
#X obj 14 303 t b a b;
#X msg 4 134 /led4Reynalda;
#X msg 3 252 /led4Reynalda 216;
#X obj 3 161 bng 15 250 50 0 empty empty empty 17 7 0 10 #fcfcfc #000000 #000000;
#X obj 150 417;
#X obj 121 -11 bng 15 250 50 0 empty empty empty 17 7 0 10 #fcfcfc #000000 #000000;
#X obj 119 -37 inlet;
#X obj -1 -4 inlet;
#X floatatom 203 107 5 0 0 0 - - - 0;
#X floatatom 325 208 5 0 0 0 - - - 0;
#X obj 318 175 cyclone/snapshot~ 1;
#X floatatom 322 262 5 0 0 0 - - - 0;
#X obj 323 232 * 1000;
#X obj 323 88 cyclone/line~ 1;
#X obj 321 289 int;
#X obj 409 117 bng 16 250 50 0 empty empty empty 0 -8 0 10 #fcfcfc #000000 #000000;
#X obj 463 250 gate;
#X obj 548 185 vradio 15 1 0 4 sdvs asfgasgf empty 0 -8 0 10 #dcdcdc #000000 #000000 0;
#X obj 641 240 nbx 3 15 -1e+37 1e+37 0 0 xfkvds asfmnv empty 0 -8 0 12 #dcdcdc #000000 #000000 0 256;
#X obj 548 255 nbx 2 15 -1e+37 1e+37 0 0 xfkvds asfmnv empty 0 -8 0 12 #dcdcdc #000000 #000000 0 256;
#X obj 641 303 nbx 3 13 -1e+37 1e+37 0 0 xfkvds asfmnv empty 0 -8 0 10 #dcdcdc #000000 #000000 0 256;
#X obj 594 303 nbx 3 13 -1e+37 1e+37 0 0 xfkvds asfmnv empty 0 -8 0 10 #dcdcdc #000000 #000000 0 256;
#X obj 548 303 nbx 3 13 -1e+37 1e+37 0 0 xfkvds asfmnv empty 0 -8 0 10 #dcdcdc #000000 #000000 0 256;
#X text 566 185 none;
#X text 566 200 1st;
#X text 566 215 2nd;
#X text 566 230 3rd;
#X text 502 215 outlet;
#X text 496 201 specify;
#X obj 641 323 bng 15 250 50 0 empty empty empty 17 7 0 10 #fcfcfc #000000 #000000;
#X obj 594 323 bng 15 250 50 0 empty empty empty 17 7 0 10 #fcfcfc #000000 #000000;
#X obj 548 323 bng 15 250 50 0 empty empty empty 17 7 0 10 #fcfcfc #000000 #000000;
#X obj 548 277 cyclone/gate 3 1;
#X text 641 218 float;
#X text 830 97 Valor Porcentaje base 10 25 1 50 2 75 3 100 4 125 5 150 6 175 7 200 8 225 9 255 10;
#X obj 2 191 pack s 0;
#X msg 2 220 set \$1 \$2;
#X msg 423 49 0 \, 0.225 5000 0 5000;
#X connect 1 0 0 0;
#X connect 2 0 1 0;
#X connect 3 0 1 0;
#X connect 4 0 3 0;
#X connect 4 1 1 0;
#X connect 4 2 2 0;
#X connect 5 0 7 0;
#X connect 5 0 39 0;
#X connect 6 0 4 0;
#X connect 7 0 6 0;
#X connect 9 0 41 0;
#X connect 10 0 9 0;
#X connect 11 0 5 0;
#X connect 12 0 5 0;
#X connect 12 0 39 1;
#X connect 13 0 16 0;
#X connect 14 0 13 0;
#X connect 15 0 18 0;
#X connect 16 0 15 0;
#X connect 17 0 14 0;
#X connect 17 1 19 0;
#X connect 18 0 12 0;
#X connect 19 0 41 0;
#X connect 21 0 23 0;
#X connect 22 0 36 1;
#X connect 23 0 36 0;
#X connect 24 0 33 0;
#X connect 25 0 34 0;
#X connect 26 0 35 0;
#X connect 36 0 26 0;
#X connect 36 1 25 0;
#X connect 36 2 24 0;
#X connect 39 0 40 0;
#X connect 40 0 6 0;
#X connect 41 0 17 0;
#X restore 682 52 pd led4rey;
#X obj 833 -139 loadbang;
#X obj 835 -111 delay 1000;
#X obj 936 -112 delay 2000;
#X obj 1037 -101 delay 1000;
#X msg 834 -79 \; pd dsp 1;
#X msg 1044 -77 \; pd dsp 1;
#X msg 927 -72 \; pd dsp 0;
#X connect 0 0 2 0;
#X connect 1 0 0 0;
#X connect 3 0 0 0;
#X connect 4 0 7 1;
#X connect 4 0 15 1;
#X connect 4 0 6 0;
#X connect 4 0 9 0;
#X connect 4 0 8 1;
#X connect 4 0 10 0;
#X connect 4 0 12 1;
#X connect 4 0 11 0;
#X connect 4 0 13 1;
#X connect 4 0 14 0;
#X connect 4 0 17 0;
#X connect 4 0 16 1;
#X connect 4 0 18 0;
#X connect 4 0 19 0;
#X connect 4 0 20 0;
#X connect 4 0 21 0;
#X connect 4 0 22 0;
#X connect 4 0 23 0;
#X connect 4 0 24 0;
#X connect 4 0 25 0;
#X connect 4 0 30 1;
#X connect 4 0 31 1;
#X connect 4 0 29 1;
#X connect 4 0 28 1;
#X connect 4 0 27 1;
#X connect 4 0 26 1;
#X connect 4 0 32 1;
#X connect 4 0 33 1;
#X connect 6 0 7 0;
#X connect 7 0 0 0;
#X connect 8 0 0 0;
#X connect 9 0 8 0;
#X connect 10 0 12 0;
#X connect 11 0 13 0;
#X connect 12 0 0 0;
#X connect 13 0 0 0;
#X connect 14 0 15 0;
#X connect 15 0 0 0;
#X connect 16 0 0 0;
#X connect 17 0 16 0;
#X connect 18 0 26 0;
#X connect 19 0 27 0;
#X connect 20 0 28 0;
#X connect 21 0 29 0;
#X connect 22 0 30 0;
#X connect 23 0 31 0;
#X connect 24 0 32 0;
#X connect 25 0 33 0;
#X connect 26 0 0 0;
#X connect 27 0 0 0;
#X connect 28 0 0 0;
#X connect 29 0 0 0;
#X connect 30 0 0 0;
#X connect 31 0 0 0;
#X connect 32 0 0 0;
#X connect 33 0 0 0;
#X connect 34 0 35 0;
#X connect 34 0 36 0;
#X connect 35 0 38 0;
#X connect 36 0 37 0;
#X connect 36 0 40 0;
#X connect 37 0 39 0;
